<?xml version="1.0" encoding="UTF-8"?>
<svg id="_图层_2" data-name="图层 2" xmlns="http://www.w3.org/2000/svg" xmlns:xlink="http://www.w3.org/1999/xlink" viewBox="0 0 32.47 35.67">
  <defs>
    <style>
      .cls-1 {
        fill: #fff;
      }

      .cls-2 {
        fill: #d4e2ff;
      }

      .cls-3 {
        fill: url(#_未命名的渐变_1105);
      }
    </style>
    <linearGradient id="_未命名的渐变_1105" data-name="未命名的渐变 1105" x1="16.24" y1="35.67" x2="16.24" y2=".01" gradientUnits="userSpaceOnUse">
      <stop offset="0" stop-color="#2ea738"/>
      <stop offset="1" stop-color="#83d600"/>
    </linearGradient>
  </defs>
  <g id="_图层_1-2" data-name="图层 1">
    <g>
      <path class="cls-3" d="M24.66,35.67H7.82c-4.3,0-7.82-3.52-7.82-7.82V7.83C0,3.53,3.52.01,7.82.01h16.84l7.82,7.82v20.03c0,4.3-3.52,7.82-7.82,7.82Z"/>
      <path class="cls-1" d="M22.23,19.92c-.64,0-1.17.53-1.17,1.17v.82h-10.93c-.58,0-1.06.48-1.06,1.06s.48,1.06,1.06,1.06h10.93v.82c0,.64.53,1.17,1.17,1.17s1.17-.53,1.17-1.17v-3.75c0-.64-.53-1.17-1.17-1.17Z"/>
      <path class="cls-1" d="M22.23,9.68c-.64,0-1.17.53-1.17,1.17v.82h-10.93c-.58,0-1.06.48-1.06,1.06s.48,1.06,1.06,1.06h10.93v.82c0,.64.53,1.17,1.17,1.17s1.17-.53,1.17-1.17v-3.75c0-.64-.53-1.17-1.17-1.17Z"/>
      <path class="cls-2" d="M24.68,0l.15,6.16c-.13.71.4,1.38,1.12,1.42l6.53.23L24.68,0Z"/>
    </g>
  </g>
</svg>