<?xml version="1.0" encoding="UTF-8"?>
<svg id="_图层_2" data-name="图层 2" xmlns="http://www.w3.org/2000/svg" xmlns:xlink="http://www.w3.org/1999/xlink" viewBox="0 0 38.13 35.82">
  <defs>
    <style>
      .cls-1 {
        fill: #fff;
      }

      .cls-2 {
        fill: #d4e2ff;
      }

      .cls-3 {
        fill: url(#_未命名的渐变_41);
      }

      .cls-4 {
        fill: url(#_未命名的渐变_41-2);
      }
    </style>
    <linearGradient id="_未命名的渐变_41" data-name="未命名的渐变 41" x1="0" y1="17.2" x2="32.76" y2="17.2" gradientUnits="userSpaceOnUse">
      <stop offset="0" stop-color="#7396f4"/>
      <stop offset="1" stop-color="#7496f6"/>
    </linearGradient>
    <linearGradient id="_未命名的渐变_41-2" data-name="未命名的渐变 41" x1="22.47" y1="28" x2="38.13" y2="28" xlink:href="#_未命名的渐变_41"/>
  </defs>
  <g id="_图层_1-2" data-name="图层 1">
    <g>
      <path class="cls-3" d="M20.92,28c0-5.34,4.33-9.66,9.66-9.66.75,0,1.48.09,2.18.26V6.79L24.93,0H5.9C2.66,0,0,2.66,0,5.9v22.59c0,3.25,2.66,5.9,5.9,5.9h17.45c-1.51-1.71-2.44-3.94-2.44-6.4Z"/>
      <rect class="cls-2" x="5.3" y="7.78" width="13.63" height="2.41" rx="1.14" ry="1.14"/>
      <rect class="cls-2" x="5.3" y="13.84" width="18.77" height="2.41" rx="1.14" ry="1.14"/>
      <rect class="cls-2" x="5.42" y="19.79" width="9.26" height="8.2" rx="1.28" ry="1.28"/>
      <path class="cls-2" d="M24.94,0l.49,5.45c-.12.67.37,1.3,1.06,1.33h6.3S24.94,0,24.94,0Z"/>
      <circle class="cls-4" cx="30.3" cy="28" r="7.83"/>
      <rect class="cls-1" x="28.86" y="23.9" width="2.1" height="5.88" rx=".99" ry=".99"/>
      <rect class="cls-1" x="30.75" y="25.79" width="2.1" height="5.88" rx=".99" ry=".99" transform="translate(60.53 -3.07) rotate(90)"/>
    </g>
  </g>
</svg>