<?xml version="1.0" encoding="UTF-8"?>
<svg id="_图层_2" data-name="图层 2" xmlns="http://www.w3.org/2000/svg" xmlns:xlink="http://www.w3.org/1999/xlink" viewBox="0 0 33.07 35.06">
  <defs>
    <style>
      .cls-1 {
        fill: #fff;
      }

      .cls-2 {
        fill: #d4e2ff;
      }

      .cls-3 {
        fill: url(#_未命名的渐变_1062);
      }
    </style>
    <linearGradient id="_未命名的渐变_1062" data-name="未命名的渐变 1062" x1="16.54" y1="35.06" x2="16.54" y2="0" gradientUnits="userSpaceOnUse">
      <stop offset="0" stop-color="#f22a2a"/>
      <stop offset="1" stop-color="#f33832" stop-opacity=".8"/>
    </linearGradient>
  </defs>
  <g id="_图层_1-2" data-name="图层 1">
    <g>
      <path class="cls-3" d="M25.05,35.06H8.02c-4.41,0-8.02-3.45-8.02-7.66V7.66C0,3.45,3.61,0,8.02,0h17.03l8.02,7.66v19.74c0,4.21-3.61,7.66-8.02,7.66Z"/>
      <path class="cls-1" d="M22.86,22.41v-6.73c0-2.66-2.11-4.9-4.93-5.51.01-.08.03-.17.03-.25,0-.85-.69-1.54-1.54-1.54s-1.54.69-1.54,1.54c0,.09.01.17.03.25-2.82.6-4.93,2.85-4.93,5.51v6.73l-.71,1.43c-.23.47.13.99.71,1.02,1.29.07,3.36.17,4.91.23,0,.01,0,.03,0,.04,0,.85.69,1.54,1.54,1.54s1.54-.69,1.54-1.54c0-.01,0-.02,0-.03,1.47-.04,3.5-.12,4.95-.18.8-.03,1.25-.82.8-1.41l-.84-1.11Z"/>
      <path class="cls-2" d="M25.05,0l.15,6.05c-.13.7.41,1.35,1.15,1.39l6.71.22L25.05,0Z"/>
    </g>
  </g>
</svg>